<svg width="22" height="20" viewBox="0 0 22 20" fill="none" xmlns="http://www.w3.org/2000/svg">
<path fill-rule="evenodd" clip-rule="evenodd" d="M8.5957 5.99023C9.83834 5.99023 10.8457 4.98288 10.8457 3.74023C10.8457 2.49759 9.83834 1.49023 8.5957 1.49023C7.35306 1.49023 6.3457 2.49759 6.3457 3.74023C6.3457 4.98288 7.35306 5.99023 8.5957 5.99023ZM19.627 13.9043C19.627 15.1469 18.6196 16.1543 17.377 16.1543C16.1343 16.1543 15.127 15.1469 15.127 13.9043C15.127 12.6617 16.1343 11.6543 17.377 11.6543C18.6196 11.6543 19.627 12.6617 19.627 13.9043ZM0.381836 14.3811C0.381836 13.8289 0.829551 13.3811 1.38184 13.3811H3.54675L5.94857 7.22904C6.18153 6.63234 6.7621 6.24441 7.40253 6.25752L8.35302 6.27698C8.77538 6.28563 9.18615 6.41671 9.53546 6.65431L14.1725 9.80842L14.6751 10.1219C15.1392 10.4115 15.299 11.0116 15.0404 11.4937C14.7508 12.0334 14.0593 12.2064 13.5497 11.8666L13.0002 11.5003L9.88184 9.80842L8.54482 13.3811H11.9747C12.6121 13.3811 13.2216 13.6422 13.6613 14.1036L16.2033 16.7706C16.2651 16.8354 16.3507 16.8721 16.4402 16.8721H20.6091C21.1664 16.8721 21.6182 17.3238 21.6182 17.8811C21.6182 18.4384 21.1664 18.8902 20.6091 18.8902L15.7818 18.8902L15.581 18.8902C15.5807 18.8902 15.5803 18.8902 15.5799 18.8902H1.38183C0.82955 18.8902 0.381836 18.4425 0.381836 17.8902V17.4175V16.9084V14.3811Z" fill="#468459"/>
</svg>
