<svg width="24" height="24" viewBox="0 0 24 24" fill="none" xmlns="http://www.w3.org/2000/svg">
<path fill-rule="evenodd" clip-rule="evenodd" d="M6.0518 5.10503C5.75891 4.81214 5.28403 4.81214 4.99114 5.10503C4.69825 5.39792 4.69825 5.8728 4.99114 6.16569L10.8265 12.0011L4.99505 17.8326C4.70215 18.1255 4.70215 18.6003 4.99505 18.8932C5.28794 19.1861 5.76281 19.1861 6.05571 18.8932L11.8872 13.0617L17.7191 18.8936C18.012 19.1865 18.4868 19.1865 18.7797 18.8936C19.0726 18.6007 19.0726 18.1258 18.7797 17.833L12.9479 12.0011L18.7836 6.16531C19.0765 5.87241 19.0765 5.39754 18.7836 5.10465C18.4907 4.81175 18.0159 4.81175 17.723 5.10465L11.8872 10.9404L6.0518 5.10503Z" fill="#468459"/>
</svg>
