<svg width="196" height="28" viewBox="0 0 196 28" fill="none" xmlns="http://www.w3.org/2000/svg">
<g clip-path="url(#clip0_638880_25082)">
<path d="M133.887 6.21191H130.75V21.807H133.887V6.21191Z" fill="#468459"/>
<path d="M118.179 6.21191L112.154 21.8022H115.448L119.884 9.91923L124.316 21.8022H127.609L121.584 6.21191H118.179Z" fill="#468459"/>
<path d="M46.1796 6.21191L40.1553 21.8022H43.4484L47.8848 9.91923L52.3164 21.8022H55.6095L49.59 6.21191H46.1796Z" fill="#468459"/>
<path d="M89.7818 15.8363C89.7664 16.655 89.4295 17.4348 88.8437 18.0078C88.2578 18.5808 87.47 18.9011 86.6499 18.8997C85.8557 18.9355 85.0797 18.655 84.4925 18.1199C83.9052 17.5849 83.5547 16.839 83.518 16.0461C83.5156 16.0217 83.5156 15.9972 83.518 15.9729V6.2168H80.3812V15.9729C80.4268 17.6032 81.1075 19.1514 82.2786 20.2884C83.4497 21.4254 85.0188 22.0615 86.6523 22.0615C88.2859 22.0615 89.855 21.4254 91.026 20.2884C92.1971 19.1514 92.8778 17.6032 92.9234 15.9729V6.2168H89.7915L89.7818 15.8363Z" fill="#468459"/>
<path d="M109.663 11.0949C109.656 9.79719 109.135 8.55501 108.212 7.64062C107.29 6.72622 106.042 6.21421 104.742 6.21681H97.5944V21.8266H100.682V8.93876H104.356C104.912 8.96514 105.436 9.20407 105.82 9.60598C106.204 10.0079 106.418 10.5419 106.418 11.0973C106.418 11.6527 106.204 12.1867 105.82 12.5886C105.436 12.9905 104.912 13.2295 104.356 13.2558H101.845L106.404 21.8217H109.765L106.428 15.6949C107.377 15.3548 108.197 14.7302 108.776 13.9067C109.355 13.0832 109.664 12.101 109.663 11.0949Z" fill="#468459"/>
<path d="M71.8454 6.21191L67.2477 12.4753L62.6452 6.21191H58.7804V21.8022H61.9172V10.4656L67.2477 17.5485L72.5783 10.4656V21.8022H75.715V6.21191H71.8454Z" fill="#468459"/>
<path d="M33.315 12.5095H28.9177C28.5021 12.4993 28.1069 12.3273 27.8166 12.0302C27.5263 11.733 27.3638 11.3343 27.364 10.9193C27.3638 10.5106 27.5237 10.1182 27.8094 9.82561C28.0952 9.53305 28.4841 9.36359 28.8933 9.35341H36.6765L38.3378 6.24121H28.9079C27.6707 6.24376 26.4845 6.73426 25.6079 7.60588C24.7312 8.4775 24.2349 9.65965 24.2272 10.8949C24.2388 12.1222 24.7377 13.2949 25.6143 14.1554C26.4909 15.016 27.6737 15.4942 28.903 15.4851H33.3004C33.7228 15.4851 34.1279 15.6527 34.4267 15.9509C34.7254 16.2491 34.8932 16.6536 34.8932 17.0754C34.8932 17.4971 34.7254 17.9016 34.4267 18.1998C34.1279 18.4981 33.7228 18.6656 33.3004 18.6656H25.4829L23.8217 21.7827H33.3004C34.5402 21.7918 35.7332 21.3105 36.6185 20.4439C37.5039 19.5773 38.0096 18.396 38.0251 17.1583C38.0231 16.5504 37.9013 15.9488 37.6665 15.3878C37.4317 14.8269 37.0886 14.3177 36.6566 13.8892C36.2247 13.4607 35.7125 13.1213 35.1492 12.8904C34.5859 12.6596 33.9826 12.5417 33.3737 12.5437L33.315 12.5095Z" fill="#468459"/>
<path d="M13.7615 15.6949L6.32021 23.1486C4.18715 22.3445 2.40286 20.821 1.27626 18.842C0.14966 16.8629 -0.24832 14.5529 0.151224 12.3117C0.550768 10.0706 1.72268 8.0395 3.46406 6.5701C5.20545 5.10069 7.40667 4.28549 9.68661 4.26563C10.1559 4.26558 10.6246 4.29982 11.0889 4.36806L4.35118 11.0949C4.04095 11.4049 3.79493 11.773 3.62715 12.1779C3.45938 12.5829 3.37315 13.0169 3.37338 13.4552C3.37383 14.3402 3.72644 15.1889 4.35362 15.8144C4.9808 16.4399 5.83118 16.7911 6.71769 16.7906C7.60421 16.7902 8.45422 16.4381 9.08076 15.812L11.5237 13.3729C11.8258 13.0736 12.2341 12.9056 12.6597 12.9056C13.0853 12.9056 13.4936 13.0736 13.7957 13.3729C13.9478 13.5247 14.0686 13.7049 14.1509 13.9033C14.2333 14.1017 14.2757 14.3143 14.2757 14.529C14.2757 14.7438 14.2333 14.9564 14.1509 15.1548C14.0686 15.3532 13.9478 15.5334 13.7957 15.6851L13.7615 15.6949Z" fill="#468459"/>
<path d="M12.9895 4.85156L5.56781 12.3247C5.2676 12.631 5.09949 13.0425 5.09949 13.4711C5.09949 13.8996 5.2676 14.3111 5.56781 14.6174C5.71394 14.7717 5.89005 14.8946 6.08537 14.9785C6.2807 15.0625 6.49113 15.1058 6.70379 15.1058C6.91646 15.1058 7.12689 15.0625 7.32222 14.9785C7.51754 14.8946 7.69365 14.7717 7.83977 14.6174L10.2827 12.1784C10.8991 11.5614 11.7345 11.2123 12.6073 11.2068C13.4801 11.2013 14.3198 11.5399 14.9439 12.1491L14.9683 12.1784C15.5907 12.8051 15.94 13.6519 15.94 14.5345C15.94 15.417 15.5907 16.2639 14.9683 16.8906L8.25996 23.6321C8.72591 23.7001 9.1962 23.7344 9.66711 23.7345C11.9434 23.7047 14.1378 22.8824 15.8716 21.4096C17.6054 19.9367 18.7697 17.9057 19.1636 15.6672C19.5575 13.4287 19.1562 11.1231 18.029 9.14846C16.9017 7.17384 15.1194 5.65409 12.9895 4.85156Z" fill="#468459"/>
</g>
<path d="M145.15 10.9057H145.888V10.0957H145.15V10.9057ZM151.774 15.2617L150.946 13.8937L150.406 14.9017C149.71 14.6257 149.08 14.3257 148.516 14.0017V14.9557H145.888V14.1277C145.324 14.4997 144.634 14.8777 143.818 15.2617H151.774ZM153.646 12.2737C153.394 11.9257 153.13 11.4877 152.854 10.9597C152.638 11.1997 152.302 11.5357 151.846 11.9677L151.09 10.8337V12.2377H149.02C149.692 12.5497 150.46 12.8557 151.324 13.1557C152.332 12.8437 153.106 12.5497 153.646 12.2737ZM155.482 10.8517C155.866 10.3477 156.154 9.68173 156.346 8.85373H154.564C154.816 9.68173 155.122 10.3477 155.482 10.8517ZM155.428 13.9657C154.612 14.4457 153.532 14.8777 152.188 15.2617H158.29C157.066 14.8657 156.112 14.4337 155.428 13.9657ZM149.254 10.9057V10.0957H148.516V10.9057H149.254ZM152.62 19.9237H159.19V21.9037H142.81V19.9237H145.096V17.5837H147.958V19.9237H149.686V17.1877H143.35V15.4417L142.342 13.5517C143.434 13.1677 144.394 12.7297 145.222 12.2377H145.15H143.17V8.67373H145.888V8.27773H142.666V6.40573H145.888V5.61373H148.516V6.40573H151.738V8.27773H148.516V8.67373H151.09V9.19573C152.014 8.23573 152.782 6.99373 153.394 5.46973L155.878 5.70373C155.746 6.13573 155.62 6.49573 155.5 6.78373H159.424V8.85373H158.74C158.5 10.3417 158.032 11.5177 157.336 12.3817C157.9 12.6697 158.674 12.9757 159.658 13.2997L158.65 15.3877V17.1877H152.62V17.6557H157.75V19.4017H152.62V19.9237Z" fill="#96C519"/>
<path d="M174.562 17.3317C173.818 16.0477 173.152 14.6557 172.564 13.1557V17.3317H174.562ZM169.774 13.1557C169.198 14.6197 168.52 16.0117 167.74 17.3317H169.774V13.1557ZM168.424 10.8697H165.13V8.92573C164.986 9.42973 164.824 9.91573 164.644 10.3837V17.1337C166.276 15.0817 167.536 12.9937 168.424 10.8697ZM177.442 8.52973V10.8697H173.95C174.874 13.1377 176.182 15.3097 177.874 17.3857L176.38 20.1577C175.984 19.5937 175.564 18.9637 175.12 18.2677V19.5457H172.564V22.2457H169.774V19.5457H167.164V18.2857C166.816 18.8377 166.384 19.4617 165.868 20.1577L164.644 18.7897V22.2457H161.998V14.8117C161.59 15.4957 161.17 16.0777 160.738 16.5577L160.126 13.0657C160.846 12.0937 161.434 11.0437 161.89 9.91573C162.358 8.77573 162.76 7.37773 163.096 5.72173L165.724 6.18973C165.604 7.00573 165.442 7.78573 165.238 8.52973H169.774V5.79373H172.564V8.52973H177.442Z" fill="#96C519"/>
<path d="M182.968 8.29573H181.546V11.8417C182.122 10.7017 182.596 9.51973 182.968 8.29573ZM187.216 10.4197H192.364V9.48373H187.216V10.4197ZM193.264 17.1877L195.388 17.4937C195.364 18.0457 195.346 18.4537 195.334 18.7177C195.322 18.9817 195.292 19.3057 195.244 19.6897C195.208 20.0617 195.184 20.3197 195.172 20.4637C195.16 20.6077 195.112 20.7937 195.028 21.0217C194.944 21.2497 194.884 21.3937 194.848 21.4537C194.812 21.5137 194.722 21.5977 194.578 21.7057C194.434 21.8257 194.314 21.8857 194.218 21.8857C194.134 21.8977 193.972 21.9217 193.732 21.9577C193.504 21.9937 193.312 22.0117 193.156 22.0117C193 22.0117 192.748 22.0117 192.4 22.0117C191.164 22.0117 190.396 21.9157 190.096 21.7237C189.808 21.5317 189.664 21.0577 189.664 20.3017V15.9457H189.034C188.974 17.4457 188.59 18.6817 187.882 19.6537C187.186 20.6257 186.064 21.4957 184.516 22.2637L183.112 20.1037C184.312 19.5637 185.164 18.9877 185.668 18.3757C186.172 17.7637 186.466 16.9537 186.55 15.9457H185.038C185.038 15.9697 185.038 16.0057 185.038 16.0537C185.05 16.1017 185.056 16.1377 185.056 16.1617C185.056 17.1817 184.84 17.9197 184.408 18.3757C183.988 18.8317 183.322 19.0597 182.41 19.0597H182.104L181.582 16.8637H181.708C182.08 16.8637 182.326 16.7857 182.446 16.6297C182.566 16.4617 182.626 16.1197 182.626 15.6037C182.626 15.0997 182.548 14.6497 182.392 14.2537C182.236 13.8577 181.954 13.4077 181.546 12.9037V22.2097H179.026V6.18973H185.434V7.21573H187.972V5.59573H190.924V7.21573H195.028V11.6437H193.498V12.5977H186.082V11.6437H184.75V10.2757C184.378 11.2117 184.054 11.9377 183.778 12.4537C184.054 12.8377 184.294 13.2397 184.498 13.6597H195.082V15.9457H192.202V19.3657C192.202 19.5577 192.22 19.6717 192.256 19.7077C192.304 19.7317 192.442 19.7437 192.67 19.7437C192.934 19.7437 193.09 19.6357 193.138 19.4197C193.186 19.2037 193.228 18.4597 193.264 17.1877Z" fill="#96C519"/>
<defs>
<clipPath id="clip0_638880_25082">
<rect width="134" height="19" fill="white" transform="translate(0 4.5)"/>
</clipPath>
</defs>
</svg>
