<svg width="1280" height="140" viewBox="0 0 1280 140" fill="none" xmlns="http://www.w3.org/2000/svg">
<rect width="1280" height="140" fill="white"/>
<path fill-rule="evenodd" clip-rule="evenodd" d="M1280 163L0 163L1.09489e-05 79.6887C129.781 58.7706 269.638 109.472 495.544 95.0445C612.752 87.5524 704.964 66.2009 768.362 52.8678C815.177 43.0227 865.563 33.4563 920.303 27.2335C1065.49 10.7323 1168.12 27.3471 1221.93 29.3491C1241.26 30.0715 1261.26 30.185 1280 29.7928L1280 163Z" fill="#F0F5E1"/>
<path opacity="0.5" fill-rule="evenodd" clip-rule="evenodd" d="M1300 151L-17 151L-17 67.6887C116.532 46.7706 260.433 97.4715 492.868 83.0445C613.465 75.5524 708.342 54.2009 773.573 40.8678C821.741 31.0227 873.583 21.4563 929.905 15.2335C1079.29 -1.26773 1184.89 15.3471 1240.26 17.3491C1260.14 18.0715 1280.72 18.185 1300 17.7928L1300 151Z" fill="#F0F5E1"/>
</svg>
